<?xml version="1.0" standalone="no"?>
<!DOCTYPE svg PUBLIC "-//W3C//DTD SVG 20010904//EN"
 "http://www.w3.org/TR/2001/REC-SVG-20010904/DTD/svg10.dtd">
<svg version="1.0" xmlns="http://www.w3.org/2000/svg"
 width="754.000000pt" height="754.000000pt" viewBox="0 0 754.000000 754.000000"
 preserveAspectRatio="xMidYMid meet">
<metadata>
Created by potrace 1.14, written by Peter Selinger 2001-2017
</metadata>
<g transform="translate(0.000000,754.000000) scale(0.100000,-0.100000)"
fill="#000000" stroke="none">
<path d="M0 3770 l0 -3770 3770 0 3770 0 0 3770 0 3770 -3770 0 -3770 0 0
-3770z m3570 2444 c6 -14 27 -28 59 -40 28 -10 51 -20 51 -24 0 -3 -24 -14
-52 -25 -50 -20 -54 -24 -74 -79 l-21 -59 -22 61 c-22 58 -25 62 -72 77 -27 9
-49 20 -49 25 0 5 22 16 49 25 50 16 50 16 82 100 l11 30 15 -35 c9 -19 19
-45 23 -56z m-584 -4 c-63 -67 -88 -127 -90 -210 -1 -84 24 -156 75 -214 49
-55 93 -83 167 -105 l56 -17 -44 -18 c-160 -66 -343 1 -417 152 -24 49 -28 69
-28 142 0 70 4 94 24 135 53 106 163 180 275 184 l29 1 -47 -50z m1459 -201
c10 -29 25 -54 34 -56 9 -2 34 -12 56 -22 l40 -18 -54 -19 c-55 -20 -57 -21
-93 -114 -9 -24 -11 -22 -31 34 -22 57 -23 59 -82 81 l-60 22 60 20 c58 19 61
21 79 71 10 29 22 52 25 52 4 0 15 -23 26 -51z m-2237 -198 c5 -8 32 -23 62
-35 l54 -20 -35 -14 c-19 -8 -45 -18 -57 -23 -13 -5 -26 -17 -29 -27 -2 -9
-12 -35 -22 -57 l-18 -40 -18 58 c-18 56 -20 58 -77 78 -32 12 -58 23 -58 24
0 1 26 12 58 23 56 21 58 23 77 78 l19 57 19 -44 c10 -24 21 -50 25 -58z
m2867 -129 l41 -107 84 -32 c47 -18 99 -37 115 -43 l30 -12 -45 -17 c-25 -10
-77 -30 -117 -45 l-71 -27 -37 -102 c-20 -57 -39 -108 -43 -114 -4 -7 -25 36
-47 98 -22 61 -44 114 -50 118 -5 5 -56 26 -113 46 -56 21 -99 42 -95 46 4 4
55 25 112 46 l103 39 41 112 c23 61 43 109 46 106 3 -3 24 -54 46 -112z
m-1100 -152 c16 -47 19 -50 71 -67 30 -9 54 -20 54 -23 0 -3 -24 -14 -54 -23
-51 -17 -55 -20 -72 -67 -10 -28 -21 -50 -25 -50 -4 0 -15 23 -25 50 -17 47
-21 51 -71 67 -29 9 -53 20 -53 23 0 3 24 14 54 23 52 17 55 20 71 67 9 28 20
50 25 50 5 0 16 -22 25 -50z m-2287 -334 c60 -19 59 -25 -10 -50 -42 -15 -48
-22 -64 -67 -10 -27 -20 -49 -24 -49 -3 0 -14 23 -25 52 -18 46 -24 53 -67 67
-26 9 -49 19 -53 22 -3 4 17 15 45 24 48 16 54 21 77 74 l25 56 21 -56 c19
-55 22 -57 75 -73z m980 5 c4 -7 32 -23 62 -34 46 -17 51 -21 35 -28 -11 -5
-37 -15 -58 -23 -28 -12 -41 -25 -53 -53 -8 -21 -18 -47 -22 -57 -7 -15 -12
-7 -30 40 -21 58 -23 60 -79 80 l-58 20 50 19 c67 25 71 29 91 88 l17 52 19
-45 c10 -25 22 -51 26 -59z m614 -725 c61 -18 113 -59 146 -115 24 -41 27 -56
27 -136 -1 -159 -50 -262 -150 -314 -160 -83 -365 38 -365 217 0 58 19 167 36
209 50 118 180 177 306 139z m-575 -627 c55 -27 82 -79 63 -124 -15 -35 -53
-211 -105 -488 -37 -196 -38 -198 -68 -214 -23 -12 -48 -14 -99 -10 -91 8
-132 29 -157 81 l-21 42 55 319 c31 176 58 329 61 340 8 26 43 65 69 76 31 14
155 1 202 -22z m473 -83 c42 -20 52 -34 137 -185 101 -179 118 -202 178 -234
36 -20 58 -22 225 -25 118 -2 190 -8 199 -15 42 -35 31 -106 -19 -127 -19 -8
-98 -10 -252 -8 l-225 3 -41 27 c-28 19 -55 52 -86 105 -24 43 -49 84 -56 91
-14 16 -55 16 -68 -1 -11 -13 -72 -343 -72 -387 1 -17 55 -94 176 -245 97
-121 183 -235 192 -253 15 -31 14 -44 -27 -285 -24 -138 -47 -268 -52 -288
-21 -85 -114 -113 -170 -51 -17 19 -29 44 -29 60 0 15 18 115 40 222 42 204
47 258 27 302 -22 48 -279 328 -301 328 -45 0 -43 4 -142 -360 -14 -52 -35
-108 -47 -125 -11 -16 -98 -123 -193 -236 -178 -213 -207 -238 -261 -224 -40
9 -82 53 -89 92 -9 46 6 68 204 305 93 112 176 217 185 234 18 35 25 68 141
684 92 486 106 534 168 580 72 53 171 59 258 16z m696 -150 c16 -12 19 -27 19
-103 l0 -88 -50 0 -50 0 0 88 c0 76 3 91 19 103 11 8 25 14 31 14 6 0 20 -6
31 -14z m2239 -508 c-23 -77 -85 -230 -134 -333 -302 -634 -858 -1141 -1518
-1384 -597 -219 -1243 -223 -1858 -11 -199 69 -605 276 -589 302 3 4 39 8 81
8 69 0 78 2 110 30 l34 30 587 0 c601 0 641 2 712 40 60 31 107 81 179 189 83
123 140 183 200 209 24 10 84 17 186 21 144 6 153 7 217 39 86 42 123 86 199
234 70 138 102 177 167 209 41 20 63 23 173 23 l126 1 39 54 c71 98 167 171
225 171 12 0 41 -21 70 -51 49 -51 50 -51 103 -47 84 7 243 90 372 194 33 28
63 38 170 63 161 37 157 36 149 9z m-2215 -428 l0 -390 -50 -25 c-27 -14 -52
-25 -55 -25 -3 0 -5 187 -5 415 l0 415 55 0 55 0 0 -390z"/>
</g>
</svg>
